<svg width="26" height="16" viewBox="0 0 26 16" fill="none" xmlns="http://www.w3.org/2000/svg">
<path fill-rule="evenodd" clip-rule="evenodd" d="M0 8C0 12.4182 3.58167 16 8 16C12.4183 16 16 12.4182 16 8C16 3.58179 12.4183 0 8 0C3.58167 0 0 3.58179 0 8ZM15 8C15 11.866 11.866 15 8 15C4.13403 15 1 11.866 1 8C1 4.13403 4.13403 1 8 1C11.866 1 15 4.13403 15 8Z" fill="#B8B8B8"/>
<path d="M0.0684113 0.760408C-0.0678355 0.522532 0.00581659 0.213915 0.232567 0.0713954C0.458845 -0.0708268 0.752265 0.00601634 0.888225 0.243391C1.18372 0.759298 1.53889 0.996346 2 0.996346C2.46111 0.996346 2.81628 0.759298 3.11177 0.243391C3.24773 0.00601634 3.54116 -0.0708268 3.76743 0.0713954C3.99418 0.213915 4.06784 0.522532 3.93159 0.760408C3.46598 1.57332 2.8061 2 2 2C1.1939 2 0.534021 1.57332 0.0684113 0.760408Z" transform="translate(6 9)" fill="#B8B8B8"/>
<path fill-rule="evenodd" clip-rule="evenodd" d="M1 2C1.55228 2 2 1.55228 2 1C2 0.447715 1.55228 0 1 0C0.447715 0 0 0.447715 0 1C0 1.55228 0.447715 2 1 2Z" transform="translate(4 6)" fill="#B8B8B8"/>
<path fill-rule="evenodd" clip-rule="evenodd" d="M1 2C1.55228 2 2 1.55228 2 1C2 0.447715 1.55228 0 1 0C0.447715 0 0 0.447715 0 1C0 1.55228 0.447715 2 1 2Z" transform="translate(10 6)" fill="#B8B8B8"/>
<path fill-rule="evenodd" clip-rule="evenodd" d="M4.5 0H3.5V3.5H0V4.5H3.5V8H4.5V4.5H8V3.5H4.5V0Z" transform="translate(18 4)" fill="#B8B8B8"/>
</svg>
